<?xml version="1.0" encoding="UTF-8"?>
<svg version="1.1" xmlns="http://www.w3.org/2000/svg" width="1024" height="1024">
<path d="M0 0 C1.94177312 -0.00187306 3.88354587 -0.00417571 5.82531804 -0.00686532 C11.11020912 -0.01292882 16.39508426 -0.01285622 21.67997801 -0.01167095 C27.40010862 -0.01146554 33.12023429 -0.01699898 38.84036255 -0.02172852 C50.02911911 -0.03000605 61.21787041 -0.03278206 72.40662978 -0.03334089 C81.51112011 -0.03381751 90.61560871 -0.03587949 99.7200985 -0.03904152 C121.38370039 -0.04641118 143.04730082 -0.05256718 164.71090412 -0.05204296 C165.40239454 -0.05202738 166.09388496 -0.0520118 166.80632964 -0.05199575 C170.3103151 -0.05191266 173.81430057 -0.05181362 177.31828604 -0.05171105 C178.01406672 -0.0516911 178.7098474 -0.05167115 179.42671235 -0.05165061 C180.8337495 -0.05161017 182.24078665 -0.05156837 183.64782379 -0.05152521 C205.51605158 -0.0509131 227.38426384 -0.05841021 249.25248718 -0.07209778 C273.87884756 -0.08750571 298.50519735 -0.0960485 323.13156289 -0.09513456 C336.14876429 -0.09480384 349.16594817 -0.09749568 362.18314552 -0.10831261 C373.26992381 -0.11746701 384.35667665 -0.11955269 395.4434571 -0.11280318 C401.08756035 -0.1095625 406.73161489 -0.10939125 412.37571335 -0.11815643 C474.0485039 -0.20772362 541.09187106 1.49603811 590.11161804 44.13371277 C591.2794656 45.1197759 592.44882008 46.10405622 593.61943054 47.08683777 C603.85170162 55.70721303 612.78131346 64.62364516 621.11161804 75.13371277 C621.90568054 76.09922058 622.69974304 77.06472839 623.51786804 78.05949402 C657.73314427 120.66617501 664.28037297 176.06892013 664.25205994 228.96226501 C664.25464971 230.92207212 664.25766456 232.88187871 664.26106334 234.84168458 C664.26906523 240.18598782 664.27091908 245.53027758 664.2716608 250.87458611 C664.27352343 256.65555551 664.28107691 262.43651811 664.28779602 268.21748352 C664.30133315 280.84251658 664.30739734 293.46754645 664.31180668 306.09258556 C664.31457795 313.99271142 664.31881697 321.89283608 664.32331085 329.79296112 C664.33549939 351.71295979 664.34583356 373.63295746 664.34918594 395.55295944 C664.34940757 396.96800995 664.34962935 398.38306047 664.3498513 399.79811098 C664.35007193 401.21635239 664.35029241 402.63459381 664.35051274 404.05283523 C664.35095526 406.89750274 664.35140239 409.74217025 664.35185242 412.58683777 C664.35196181 413.29213907 664.3520712 413.99744037 664.3521839 414.72411444 C664.35580761 437.54943318 664.37170365 460.37472003 664.39504278 483.20002658 C664.41974155 507.39985272 664.4333635 531.59966066 664.43455386 555.79949975 C664.43540024 568.96395826 664.44109733 582.12837679 664.45937347 595.29282379 C664.4748946 606.51157602 664.47982515 617.7302736 664.47163537 628.94903454 C664.46777036 634.65679783 664.46845085 640.3644515 664.48269272 646.07220078 C664.5306506 666.50561894 664.46854301 686.84934535 662.72996521 707.22117615 C662.66845265 707.9419679 662.60694009 708.66275965 662.54356351 709.40539357 C658.66776905 753.41191479 645.41205909 793.59684982 616.11161804 827.13371277 C615.34349792 828.01349792 615.34349792 828.01349792 614.55986023 828.91105652 C575.34183918 873.40018136 524.1872989 891.34959252 466.19697315 895.40765268 C454.86494296 896.10953128 443.57437481 896.27796566 432.22323608 896.26742554 C430.28146296 896.26929859 428.33969021 896.27160124 426.39791805 896.27429086 C421.11302696 896.28035435 415.82815183 896.28028176 410.54325807 896.27909648 C404.82312747 896.27889108 399.1030018 896.28442452 393.38287354 896.28915405 C382.19411697 896.29743158 371.00536568 896.30020759 359.81660631 896.30076643 C350.71211598 896.30124304 341.60762737 896.30330503 332.50313759 896.30646706 C310.83953569 896.31383672 289.17593526 896.31999271 267.51233196 896.3194685 C266.82084154 896.31945292 266.12935112 896.31943734 265.41690645 896.31942129 C261.91292098 896.31933819 258.40893551 896.31923916 254.90495005 896.31913658 C254.20916936 896.31911664 253.51338868 896.31909669 252.79652373 896.31907614 C251.38948659 896.3190357 249.98244944 896.31899391 248.57541229 896.31895075 C226.7071845 896.31833864 204.83897225 896.32583575 182.9707489 896.33952332 C158.34438852 896.35493125 133.71803873 896.36347404 109.0916732 896.36256009 C96.0744718 896.36222937 83.05728791 896.36492121 70.04009056 896.37573814 C58.95331227 896.38489255 47.86655943 896.38697823 36.77977898 896.38022872 C31.13567574 896.37698804 25.49162119 896.37681679 19.84752274 896.38558197 C-75.90647473 896.52467333 -75.90647473 896.52467333 -117.88838196 877.13371277 C-118.52888489 876.83883972 -119.16938782 876.54396667 -119.82929993 876.24015808 C-163.64818534 855.83715474 -199.92574399 817.87356962 -217.01387024 772.55168152 C-229.22985215 738.77527593 -232.05465292 702.91864206 -232.02209473 667.24459839 C-232.02396687 665.27837719 -232.02626916 663.31215637 -232.02896005 661.34593612 C-232.03503487 655.98425573 -232.03494958 650.62259104 -232.03376567 645.26090801 C-232.03356056 639.46170686 -232.03909098 633.6625106 -232.04382324 627.86331177 C-232.05210711 616.51586596 -232.05487708 605.16842534 -232.05543562 593.82097676 C-232.05591195 584.58865633 -232.05797252 575.3563376 -232.06113625 566.12401772 C-232.06203083 563.45889292 -232.06292372 560.79376813 -232.06381112 558.12864333 C-232.0641427 557.1345694 -232.0641427 557.1345694 -232.06448097 556.12041316 C-232.07062934 537.49632778 -232.07458214 518.87224298 -232.07413769 500.24815655 C-232.07412211 499.5469865 -232.07410653 498.84581645 -232.07409048 498.12339882 C-232.07400738 494.57023648 -232.07390834 491.01707414 -232.07380577 487.46391179 C-232.07378583 486.7583464 -232.07376588 486.052781 -232.07374533 485.32583484 C-232.07370489 483.89900995 -232.0736631 482.47218507 -232.07361994 481.04536018 C-232.0730078 458.86866841 -232.0805048 436.69199195 -232.0941925 414.51530457 C-232.10959498 389.55057782 -232.11815619 364.58586113 -232.11722928 339.62112933 C-232.1168602 326.42175648 -232.11959851 313.22240015 -232.13040733 300.02303123 C-232.13955484 288.7809727 -232.14165299 277.53893926 -232.13489791 266.2968786 C-232.13165376 260.57202665 -232.1314989 254.84722274 -232.14025116 249.12237549 C-232.21837821 194.64242931 -232.21837821 194.64242931 -228.13838196 168.38371277 C-227.9706427 167.28502869 -227.80290344 166.1863446 -227.63008118 165.05436707 C-223.93008076 142.07567815 -216.96174879 120.5780313 -205.88838196 100.13371277 C-205.3803302 99.19229431 -205.3803302 99.19229431 -204.86201477 98.2318573 C-182.16187782 56.83051541 -141.09888447 24.42733589 -96.10810852 11.0118866 C-92.38962289 9.95956989 -88.64866687 9.02390267 -84.88838196 8.13371277 C-84.1318634 7.95356628 -83.37534485 7.7734198 -82.59590149 7.58781433 C-55.54060184 1.31329946 -27.67902043 -0.0257014 0 0 Z " fill="#FC8209" transform="translate(294.8883819580078,63.86628723144531)"/>
<path d="M0 0 C65.01 0 130.02 0 197 0 C197 73.59 197 147.18 197 223 C167.96 223 138.92 223 109 223 C109 337.84 109 452.68 109 571 C69.338125 571.04125 29.67625 571.0825 -11.1875 571.125 C-23.66199951 571.14320801 -36.13649902 571.16141602 -48.98901367 571.18017578 C-64.34631348 571.18920898 -64.34631348 571.18920898 -71.55976868 571.19088745 C-76.54517943 571.19273366 -81.53054661 571.20015951 -86.51594543 571.21115112 C-190.93154533 571.43093583 -190.93154533 571.43093583 -233 552 C-233.64050293 551.70512695 -234.28100586 551.41025391 -234.94091797 551.10644531 C-278.75980339 530.70344197 -315.03736204 492.73985686 -332.12548828 447.41796875 C-344.72501137 412.58109642 -347.17778826 375.73314627 -347.11352539 338.97851562 C-347.11321846 336.66372428 -347.11335356 334.34893284 -347.11389065 332.03414154 C-347.11411483 325.87956442 -347.10835238 319.72500706 -347.10128021 313.57043457 C-347.09555176 307.77840111 -347.09531528 301.98637227 -347.09460449 296.19433594 C-347.08937367 279.29622138 -347.07541241 262.39811043 -347.0625 245.5 C-347.0315625 188.8225 -347.0315625 188.8225 -347 131 C-232.49 131 -117.98 131 0 131 C0 87.77 0 44.54 0 0 Z " fill="#FC8409" transform="translate(410,389)"/>
<path d="M0 0 C2.44519486 0.00030699 4.89038982 0.00017173 7.33558464 -0.00036526 C13.83190036 -0.00058927 20.32819734 0.00516957 26.82450867 0.01224518 C32.94005385 0.01797724 39.05559467 0.01821031 45.17114258 0.0189209 C63.00846599 0.02414996 80.84578597 0.03811123 98.68310547 0.05102539 C138.57185547 0.07165039 178.46060547 0.09227539 219.55810547 0.11352539 C219.55810547 107.36352539 219.55810547 214.61352539 219.55810547 325.11352539 C183.58810547 325.11352539 147.61810547 325.11352539 110.55810547 325.11352539 C110.55810547 368.34352539 110.55810547 411.57352539 110.55810547 456.11352539 C-3.95189453 456.11352539 -118.46189453 456.11352539 -236.44189453 456.11352539 C-236.48314453 415.91540039 -236.52439453 375.71727539 -236.56689453 334.30102539 C-236.58510254 321.65169678 -236.60331055 309.00236816 -236.62207031 295.96972656 C-236.63110352 280.41296387 -236.63110352 280.41296387 -236.63278198 273.10884094 C-236.63463031 268.05417593 -236.64206489 262.99955378 -236.65304565 257.94490051 C-236.66693479 251.46393363 -236.67084574 244.98302757 -236.66803908 238.50204718 C-236.66862451 236.14443482 -236.67248788 233.78681996 -236.68032479 231.42922056 C-236.74696912 210.37369606 -235.92938072 189.19987592 -232.69189453 168.36352539 C-232.52415527 167.26484131 -232.35641602 166.16615723 -232.18359375 165.03417969 C-228.48359333 142.05549078 -221.51526136 120.55784392 -210.44189453 100.11352539 C-209.93384277 99.17210693 -209.93384277 99.17210693 -209.41552734 98.21166992 C-186.71539039 56.81032803 -145.65239704 24.40714851 -100.66162109 10.99169922 C-96.94313546 9.93938251 -93.20217944 9.00371529 -89.44189453 8.11352539 C-88.68537598 7.93337891 -87.92885742 7.75323242 -87.14941406 7.56762695 C-58.55085606 0.93520818 -29.22898216 -0.04847023 0 0 Z " fill="#FC8209" transform="translate(299.44189453125,63.886474609375)"/>
<path d="M0 0 C116.16 0 232.32 0 352 0 C352.0928125 56.05875 352.0928125 56.05875 352.1875 113.25 C352.21481201 124.98208008 352.24212402 136.71416016 352.27026367 148.80175781 C352.28381348 163.30224609 352.28381348 163.30224609 352.28633118 170.12420654 C352.28908818 174.81516923 352.30017536 179.50602655 352.31672668 184.19696045 C352.54178186 251.01286822 350.12347196 318.20773808 304 371 C303.48791992 371.58652344 302.97583984 372.17304687 302.44824219 372.77734375 C262.7897944 417.76609095 210.81428541 435.67400865 152.16205871 439.40385348 C140.44740636 440.09498787 128.758745 440.13438927 117.02685547 440.11352539 C114.74185755 440.11321833 112.45685953 440.11335377 110.17186165 440.11389065 C104.10649426 440.11411447 98.04114699 440.10835978 91.9757843 440.10128021 C86.26388492 440.09554399 80.5519902 440.09531486 74.84008789 440.09460449 C58.18505598 440.08937746 41.53002773 440.07541619 24.875 440.0625 C-12.37375 440.041875 -49.6225 440.02125 -88 440 C-88 325.16 -88 210.32 -88 92 C-58.96 92 -29.92 92 0 92 C0 61.64 0 31.28 0 0 Z " fill="#FC8409" transform="translate(607,520)"/>
<path d="M0 0 C65.01 0 130.02 0 197 0 C197 73.59 197 147.18 197 223 C131.99 223 66.98 223 0 223 C0 149.41 0 75.82 0 0 Z " fill="#FDFDFD" transform="translate(410,389)"/>
<path d="M0 0 C116.16 0 232.32 0 352 0 C352 5.28 352 10.56 352 16 C235.84 16 119.68 16 0 16 C0 10.72 0 5.44 0 0 Z " fill="#000000" transform="translate(607,504)"/>
<path d="M0 0 C5.28 0 10.56 0 16 0 C16 114.84 16 229.68 16 348 C10.72 348 5.44 348 0 348 C0 233.16 0 118.32 0 0 Z " fill="#010101" transform="translate(503,612)"/>
<path d="M0 0 C114.51 0 229.02 0 347 0 C347 5.28 347 10.56 347 16 C232.49 16 117.98 16 0 16 C0 10.72 0 5.44 0 0 Z " fill="#000000" transform="translate(63,504)"/>
<path d="M0 0 C5.28 0 10.56 0 16 0 C16 26.73 16 53.46 16 81 C42.4 81 68.8 81 96 81 C96 86.28 96 91.56 96 97 C69.6 97 43.2 97 16 97 C16 123.73 16 150.46 16 178 C10.72 178 5.44 178 0 178 C0 151.27 0 124.54 0 97 C-26.73 97 -53.46 97 -81 97 C-81 91.72 -81 86.44 -81 81 C-54.27 81 -27.54 81 0 81 C0 54.27 0 27.54 0 0 Z " fill="#FEFDFA" transform="translate(280,199)"/>
<path d="M0 0 C5.28 0 10.56 0 16 0 C16 107.25 16 214.5 16 325 C10.72 325 5.44 325 0 325 C0 217.75 0 110.5 0 0 Z " fill="#020100" transform="translate(503,64)"/>
<path d="M0 0 C4.95 0 9.9 0 15 0 C15.33 14.52 15.66 29.04 16 44 C26.49737609 37.82507289 36.89526023 31.6614717 47.1015625 25.04492188 C47.96265625 24.50029297 48.82375 23.95566406 49.7109375 23.39453125 C50.46681152 22.90831299 51.22268555 22.42209473 52.00146484 21.92114258 C54 21 54 21 57 22 C58.38671875 23.9609375 58.38671875 23.9609375 59.6875 26.375 C60.12449219 27.16648437 60.56148438 27.95796875 61.01171875 28.7734375 C62 31 62 31 62 34 C61.35675781 34.34667725 60.71351563 34.69335449 60.05078125 35.05053711 C57.03305707 36.67805259 54.01636882 38.30747389 51 39.9375 C49.91251465 40.52490967 48.8250293 41.11231934 47.70458984 41.7175293 C40.63587692 45.545241 33.60249746 49.42596955 26.6484375 53.45874023 C22.21313471 56 22.21313471 56 20 56 C20 56.66 20 57.32 20 58 C20.88357178 58.27239502 21.76714355 58.54479004 22.67749023 58.82543945 C25.75577641 59.91366304 28.33905618 61.16688271 31.16015625 62.79296875 C32.1133374 63.33800049 33.06651855 63.88303223 34.04858398 64.44458008 C35.04317627 65.01974365 36.03776855 65.59490723 37.0625 66.1875 C39.11661832 67.36297436 41.171303 68.53745958 43.2265625 69.7109375 C44.2155957 70.27651367 45.20462891 70.84208984 46.22363281 71.42480469 C51.43112867 74.37932133 56.70529419 77.20528964 62 80 C61.43957711 83.67817783 60.4857904 86.21380426 58.4375 89.3125 C57.98246094 90.00988281 57.52742188 90.70726562 57.05859375 91.42578125 C56.70925781 91.94527344 56.35992187 92.46476563 56 93 C52.68624767 91.74600062 49.69098492 90.33437881 46.6640625 88.49609375 C45.43623047 87.75456055 45.43623047 87.75456055 44.18359375 86.99804688 C43.33925781 86.48306641 42.49492187 85.96808594 41.625 85.4375 C39.97141878 84.43609121 38.31777094 83.43479243 36.6640625 82.43359375 C34.79492188 81.30050781 32.92578125 80.16742187 31 79 C26.05 76.03 21.1 73.06 16 70 C15.67 84.52 15.34 99.04 15 114 C10.05 114 5.1 114 0 114 C-0.33 99.48 -0.66 84.96 -1 70 C-4.3 71.93875 -7.6 73.8775 -11 75.875 C-12.08192627 76.51050781 -13.16385254 77.14601563 -14.27856445 77.80078125 C-18.868624 80.51075564 -23.43253695 83.24449868 -27.91796875 86.125 C-28.64564453 86.59180176 -29.37332031 87.05860352 -30.12304688 87.53955078 C-31.4752972 88.41429171 -32.82192849 89.29779544 -34.16210938 90.19091797 C-35.72783426 91.20376202 -37.35969829 92.11300632 -39 93 C-42.64187858 91.78604047 -42.91745993 90.90993923 -44.6875 87.625 C-45.12449219 86.83351563 -45.56148437 86.04203125 -46.01171875 85.2265625 C-47 83 -47 83 -47 80 C-46.03513672 79.47998413 -46.03513672 79.47998413 -45.05078125 78.94946289 C-42.03305707 77.32194741 -39.01636882 75.69252611 -36 74.0625 C-34.91251465 73.47509033 -33.8250293 72.88768066 -32.70458984 72.2824707 C-25.63587692 68.454759 -18.60249746 64.57403045 -11.6484375 60.54125977 C-7.21313471 58 -7.21313471 58 -5 58 C-5 57.34 -5 56.68 -5 56 C-5.87833496 55.72760498 -6.75666992 55.45520996 -7.66162109 55.17456055 C-10.78879725 54.07430864 -13.50880803 52.79159699 -16.4140625 51.20703125 C-17.41759766 50.66199951 -18.42113281 50.11696777 -19.45507812 49.55541992 C-20.50115234 48.98025635 -21.54722656 48.40509277 -22.625 47.8125 C-23.69427734 47.22895752 -24.76355469 46.64541504 -25.86523438 46.04418945 C-32.98085595 42.14761697 -40.0521103 38.19006506 -47 34 C-46.43957711 30.32182217 -45.4857904 27.78619574 -43.4375 24.6875 C-42.98246094 23.99011719 -42.52742187 23.29273438 -42.05859375 22.57421875 C-41.53458984 21.79498047 -41.53458984 21.79498047 -41 21 C-36.89442045 22.49250453 -33.35280513 24.49119674 -29.6328125 26.7734375 C-29.03499969 27.13845367 -28.43718689 27.50346985 -27.82125854 27.87954712 C-25.92028598 29.04111657 -24.02252648 30.20781124 -22.125 31.375 C-20.2340286 32.5340605 -18.34238863 33.69201489 -16.45016479 34.84902954 C-14.72743121 35.90304707 -13.00648493 36.95998424 -11.28564453 38.01708984 C-7.88976547 40.06652733 -4.44378424 42.03212329 -1 44 C-0.67 29.48 -0.34 14.96 0 0 Z " fill="#FEFAF8" transform="translate(280,692)"/>
<path d="M0 0 C6.93 0 13.86 0 21 0 C19.72648737 5.73080685 18.46015996 11.02510292 16.6875 16.5625 C16.24218416 17.96614477 15.79687175 19.36979064 15.3515625 20.7734375 C14.9012491 22.18235798 14.45073269 23.5912136 14 25 C13.18306011 27.56111297 12.37030716 30.1234915 11.5625 32.6875 C11.35689453 33.33984619 11.15128906 33.99219238 10.93945312 34.66430664 C9.24979622 40.08095676 7.71559425 45.53596719 6.1875 51 C3.70404996 59.85758413 0.84937497 68.55851176 -2.10864258 77.26757812 C-4.32539891 83.84093168 -6.2864829 90.43088067 -8.06665039 97.13354492 C-10.07844288 104.5684302 -12.58268383 111.82650071 -15.05859375 119.1171875 C-17.05507456 125.03882491 -18.89615131 130.9606801 -20.5 137 C-22.66522748 145.1532014 -25.3357384 153.10358756 -28.04980469 161.08862305 C-30.38562211 168.01233637 -32.45196184 174.9634884 -34.34106445 182.02050781 C-35.68394572 186.99567838 -37.25677975 191.82616685 -39.10546875 196.640625 C-40.15085141 199.39787882 -41.0675155 202.20254649 -42 205 C-48.93 205 -55.86 205 -63 205 C-61.76938255 199.46222147 -60.5670229 194.28731849 -58.89624023 188.92089844 C-58.69582626 188.27366318 -58.49541229 187.62642792 -58.28892517 186.95957947 C-57.63222838 184.84176681 -56.9704482 182.72558087 -56.30859375 180.609375 C-55.83944983 179.09997255 -55.37063049 177.59046918 -54.90211487 176.08087158 C-53.66756885 172.10607752 -52.42871697 168.13263865 -51.18890381 164.15948486 C-49.96129951 160.22299434 -48.73760625 156.28528904 -47.51367188 152.34765625 C-45.83436247 146.94614074 -44.15347216 141.54512237 -42.47043324 136.14476776 C-40.43204061 129.6041231 -38.39789995 123.0622012 -36.37231445 116.51757812 C-36.16518043 115.84865665 -35.9580464 115.17973518 -35.74463558 114.49054337 C-34.78006071 111.37544482 -33.81632816 108.26009144 -32.85423279 105.14422607 C-31.07685024 99.40320345 -29.25043059 93.68876399 -27.3125 88 C-25.47230606 82.57490178 -23.87560328 77.1119241 -22.33203125 71.59765625 C-19.19914889 60.52665357 -15.80770621 49.54307033 -12.35839844 38.56713867 C-11.36623175 35.40959529 -10.37813303 32.25079999 -9.390625 29.09179688 C-6.34527839 19.36470246 -3.27565508 9.65237449 0 0 Z " fill="#FEFCFB" transform="translate(752,636)"/>
<path d="M0 0 C0.99 0 1.98 0 3 0 C3.00238835 1.08111116 3.00477671 2.16222233 3.00723743 3.27609444 C3.06652956 29.81334125 3.14270755 56.35050087 3.23571491 82.88765144 C3.28032122 95.72180475 3.31981236 108.55593246 3.34643555 121.39013672 C3.36970529 132.60105618 3.40341273 143.81189217 3.44870156 155.02274501 C3.47225185 160.93641045 3.49122611 166.84999527 3.49761391 172.76370621 C3.52641617 196.24121184 3.83947581 219.63871517 5.34448242 243.07373047 C5.40253575 244.00575924 5.46058908 244.93778801 5.5204016 245.89806008 C8.09826053 286.20720611 17.86663781 325.58160529 43 358 C43.72832031 358.93972656 44.45664063 359.87945313 45.20703125 360.84765625 C75.29613612 398.52680559 114.82456601 422.52490325 162.38232422 430.5546875 C164.03170797 430.83527657 165.67949446 431.12559444 167.32470703 431.4296875 C179.4944161 433.67754489 191.74474384 434.45864468 204.08569336 435.06005859 C204.96524118 435.10338027 205.84478901 435.14670194 206.75098979 435.19133639 C229.197463 436.26964556 251.64339949 436.35177025 274.11147308 436.40519714 C279.36857783 436.41946097 284.62561869 436.44400623 289.88269043 436.4675293 C305.10925598 436.52999123 320.33588328 436.57659344 335.5625 436.625 C369.696875 436.74875 403.83125 436.8725 439 437 C439 323.15 439 209.3 439 92 C439.33 92 439.66 92 440 92 C440 206.84 440 321.68 440 440 C402.978125 440.04125 365.95625 440.0825 327.8125 440.125 C316.17331299 440.14320801 304.53412598 440.16141602 292.54223633 440.18017578 C278.20056152 440.18920898 278.20056152 440.18920898 271.4617157 440.19088745 C266.8096369 440.19273181 262.15760492 440.20014998 257.50553894 440.21115112 C156.0882871 440.4400962 156.0882871 440.4400962 114 421 C113.03924561 420.55769043 113.03924561 420.55769043 112.05908203 420.10644531 C68.24019661 399.70344197 31.96263796 361.73985686 14.87451172 316.41796875 C2.27501182 281.58116053 -0.17795084 244.73310448 -0.11352539 207.97851562 C-0.11324276 205.70032248 -0.11340274 203.42212925 -0.1139679 201.14393616 C-0.11425289 195.00664151 -0.10840451 188.86936671 -0.10139394 182.73207664 C-0.09511062 176.30059283 -0.09455268 169.86910848 -0.09336853 163.43762207 C-0.09062111 152.65811787 -0.08438984 141.87862174 -0.07543945 131.09912109 C-0.066237 120.00439489 -0.05917008 108.90967066 -0.05493164 97.81494141 C-0.05466892 97.129149 -0.05440619 96.4433566 -0.05413551 95.73678261 C-0.05283031 92.29579231 -0.05156664 88.854802 -0.05032361 85.41381168 C-0.03998496 56.94253626 -0.02232134 28.47126841 0 0 Z " fill="#A65705" transform="translate(63,520)"/>
<path d="M0 0 C2.28499792 0.00030706 4.56999594 0.00017162 6.85499382 -0.00036526 C12.92036121 -0.00058908 18.98570848 0.00516561 25.05107117 0.01224518 C30.76297055 0.0179814 36.47486527 0.01821053 42.18676758 0.0189209 C58.84179949 0.02414793 75.49682774 0.0381092 92.15185547 0.05102539 C129.40060547 0.07165039 166.64935547 0.09227539 205.02685547 0.11352539 C205.02685547 107.36352539 205.02685547 214.61352539 205.02685547 325.11352539 C204.69685547 325.11352539 204.36685547 325.11352539 204.02685547 325.11352539 C204.02685547 218.85352539 204.02685547 112.59352539 204.02685547 3.11352539 C168.61373047 3.23727539 133.20060547 3.36102539 96.71435547 3.48852539 C85.59965576 3.52252441 74.48495605 3.55652344 63.03344727 3.59155273 C52.92837777 3.6315341 52.92837777 3.6315341 42.82331848 3.67398071 C38.37902611 3.69258399 33.93475232 3.70608011 29.49043274 3.71621704 C-64.47581209 3.09180913 -64.47581209 3.09180913 -148.97314453 40.11352539 C-149.54838867 40.53327637 -150.12363281 40.95302734 -150.71630859 41.38549805 C-165.34883897 52.18059581 -178.89534568 64.66457194 -189.97314453 79.11352539 C-190.45734863 79.74452148 -190.94155273 80.37551758 -191.44042969 81.02563477 C-207.96141167 102.85560646 -218.66053122 127.26947189 -223.97314453 154.11352539 C-224.17931396 155.12189453 -224.17931396 155.12189453 -224.38964844 156.15063477 C-227.36716681 170.77581316 -229.23570326 185.4285119 -230.07226562 200.32958984 C-230.11402632 201.05790406 -230.15578702 201.78621827 -230.1988132 202.53660262 C-231.41365276 224.36647818 -231.32794409 246.23004226 -231.3778615 268.08671355 C-231.39375874 274.15909818 -231.42046012 280.2314364 -231.44589233 286.30378723 C-231.49221893 297.74196123 -231.5291823 309.18014442 -231.56256521 320.61836272 C-231.60111774 333.66611368 -231.65043805 346.71381749 -231.70054936 359.76152837 C-231.80318108 386.54549221 -231.89265938 413.32948647 -231.97314453 440.11352539 C-232.96314453 440.11352539 -233.95314453 440.11352539 -234.97314453 440.11352539 C-235.01896189 411.14508705 -235.0542623 382.1766523 -235.07527519 353.20818485 C-235.07777602 349.77306718 -235.08036472 346.33794959 -235.08300781 342.90283203 C-235.08353243 342.2190824 -235.08405705 341.53533277 -235.08459757 340.83086345 C-235.09325414 329.82043156 -235.10899733 318.81002097 -235.12745012 307.79960164 C-235.14628241 296.46657724 -235.15713982 285.13356844 -235.16132152 273.80052739 C-235.16390935 267.44982879 -235.16991136 261.09917819 -235.18460464 254.7484951 C-235.29921809 203.21874955 -235.29921809 203.21874955 -232.97314453 182.11352539 C-232.89343729 181.36830911 -232.81373005 180.62309282 -232.73160744 179.85529423 C-232.31398976 176.00863574 -231.81721077 172.18691538 -231.22314453 168.36352539 C-231.05540527 167.26484131 -230.88766602 166.16615723 -230.71484375 165.03417969 C-227.01484333 142.05549078 -220.04651136 120.55784392 -208.97314453 100.11352539 C-208.46509277 99.17210693 -208.46509277 99.17210693 -207.94677734 98.21166992 C-185.24664039 56.81032803 -144.18364704 24.40714851 -99.19287109 10.99169922 C-95.47438546 9.93938251 -91.73342944 9.00371529 -87.97314453 8.11352539 C-87.21662598 7.93337891 -86.46010742 7.75323242 -85.68066406 7.56762695 C-57.57881394 1.05040191 -28.72979169 -0.05109278 0 0 Z " fill="#A45605" transform="translate(297.97314453125,63.886474609375)"/>
<path d="M0 0 C58.41 0 116.82 0 177 0 C177 5.28 177 10.56 177 16 C118.59 16 60.18 16 0 16 C0 10.72 0 5.44 0 0 Z " fill="#FEFEFE" transform="translate(647,280)"/>
<path d="M0 0 C0.99 0 1.98 0 3 0 C3.06885262 28.81523152 3.12174064 57.63045484 3.15319599 86.44575258 C3.15694686 89.86927138 3.16082995 93.29279003 3.16479492 96.71630859 C3.16558185 97.39769743 3.16636878 98.07908627 3.16717956 98.78112325 C3.18013446 109.72729076 3.20373169 120.67340965 3.23145839 131.61954859 C3.25979204 142.90176169 3.27601067 154.18395108 3.28226548 165.46620154 C3.28613299 171.78200251 3.29504082 178.09769427 3.31719017 184.41345978 C3.54186215 251.16048515 1.06974179 318.26923686 -45 371 C-45.51208008 371.58652344 -46.02416016 372.17304687 -46.55175781 372.77734375 C-86.2102056 417.76609095 -138.18571459 435.67400865 -196.83794129 439.40385348 C-208.55259266 440.09498781 -220.24124934 440.13444229 -231.97314453 440.11352539 C-234.2220764 440.11324264 -236.47100837 440.11340297 -238.71994019 440.1139679 C-244.7682764 440.11425243 -250.8165924 440.10841173 -256.86492395 440.10139394 C-263.20697582 440.09510272 -269.54902826 440.09455207 -275.89108276 440.09336853 C-286.51739895 440.09062295 -297.14370724 440.08439538 -307.77001953 440.07543945 C-318.70556604 440.0662326 -329.64111054 440.05916786 -340.57666016 440.05493164 C-341.59111911 440.05453756 -341.59111911 440.05453756 -342.62607218 440.05413551 C-346.019569 440.05283028 -349.41306582 440.05156662 -352.80656266 440.05032361 C-380.87104686 440.03999019 -408.93552297 440.02233108 -437 440 C-437 439.01 -437 438.02 -437 437 C-435.48543056 436.99365209 -435.48543056 436.99365209 -433.94026375 436.98717594 C-409.20982778 436.88332809 -384.47941736 436.77450517 -359.74902534 436.66066074 C-347.78890979 436.60571487 -335.82879129 436.55230286 -323.86865234 436.50268555 C-313.42697428 436.45936356 -302.98531475 436.4129766 -292.54366577 436.36312145 C-287.03058305 436.33689986 -281.51750308 436.31206831 -276.00439835 436.29092598 C-256.01876784 436.2133313 -236.03681249 436.12799502 -216.05810547 435.55834961 C-214.75617311 435.52241227 -213.45424076 435.48647493 -212.11285591 435.44944859 C-164.89563348 433.93772187 -115.85206882 426.51952956 -78 396 C-77.44086914 395.55221191 -76.88173828 395.10442383 -76.30566406 394.64306641 C-61.9217159 382.99911062 -48.86241133 370.00067204 -38 355 C-37.57912109 354.42878418 -37.15824219 353.85756836 -36.72460938 353.26904297 C-14.44666045 322.75235948 -6.43851361 285.94767853 -3 249 C-2.87882812 247.70578125 -2.75765625 246.4115625 -2.6328125 245.078125 C-0.4375974 216.73989374 -0.80390538 188.165164 -0.69667697 159.76464701 C-0.6744574 154.12733448 -0.64724873 148.4900458 -0.62062073 142.85275269 C-0.57117063 132.22897478 -0.52605977 121.6051833 -0.48259836 110.98137939 C-0.4328121 98.86481616 -0.37805068 86.7482769 -0.32291877 74.63173699 C-0.20983301 49.7545138 -0.10284097 24.87726751 0 0 Z " fill="#747476" transform="translate(956,520)"/>
<path d="M0 0 C28.5522126 -0.04583958 57.10442078 -0.08112904 85.65666307 -0.10213066 C89.04413937 -0.10463142 92.4316156 -0.10722013 95.8190918 -0.10986328 C96.49334496 -0.1103879 97.16759813 -0.11091252 97.86228321 -0.11145304 C108.71293426 -0.12010434 119.56356365 -0.13584447 130.41420194 -0.15430559 C141.58677233 -0.17315283 152.75933402 -0.18399842 163.93191987 -0.18817699 C170.19102075 -0.19076231 176.45007285 -0.19674768 182.70915794 -0.21146011 C246.08403269 -0.35441438 315.44962898 0.03097923 366 44 C367.16784756 44.98606313 368.33720204 45.97034345 369.5078125 46.953125 C379.74008358 55.57350026 388.66969542 64.48993239 397 75 C397.7940625 75.96550781 398.588125 76.93101562 399.40625 77.92578125 C434.41423047 121.51957971 440.20815063 178.03797775 440.11352539 232.02148438 C440.11324276 234.29967752 440.11340274 236.57787075 440.1139679 238.85606384 C440.11425289 244.99335849 440.10840451 251.13063329 440.10139394 257.26792336 C440.09511062 263.69940717 440.09455268 270.13089152 440.09336853 276.56237793 C440.09062111 287.34188213 440.08438984 298.12137826 440.07543945 308.90087891 C440.066237 319.99560511 440.05917008 331.09032934 440.05493164 342.18505859 C440.05453756 343.2137472 440.05453756 343.2137472 440.05413551 344.26321739 C440.05283031 347.70420769 440.05156664 351.145198 440.05032361 354.58618832 C440.03998496 383.05746374 440.02232134 411.52873159 440 440 C439.01 440 438.02 440 437 440 C436.99761165 438.86936284 436.99522329 437.73872568 436.99276257 436.57382679 C436.93360856 408.88810113 436.85750987 381.20246 436.76428509 353.51682758 C436.75531572 350.83616975 436.7464079 348.15551172 436.73754883 345.47485352 C436.7342433 344.47559334 436.7342433 344.47559334 436.730871 343.45614608 C436.69795094 333.42039884 436.67346087 323.38465953 436.65356445 313.34887695 C436.63037697 301.66011008 436.5967542 289.97142438 436.55129844 278.28272218 C436.52764172 272.1105667 436.50873479 265.93849022 436.50238609 259.76629066 C436.75628721 204.29102358 436.75628721 204.29102358 428.25 149.625 C427.98614502 148.54847168 427.72229004 147.47194336 427.45043945 146.36279297 C421.97123193 124.55994342 413.35735537 104.17385465 400 86 C399.57493164 85.41943848 399.14986328 84.83887695 398.71191406 84.24072266 C368.57544583 43.54855392 326.14534664 16.9904227 276 9 C237.67709975 3.6358412 199.07024872 3.84189973 160.46132398 3.69667697 C154.79865949 3.6744451 149.13601865 3.64724273 143.47337341 3.62062073 C132.80358794 3.57118658 122.133789 3.52607014 111.46397775 3.48259836 C99.29418813 3.43279802 87.12442227 3.37804205 74.95465577 3.32291877 C49.96979279 3.20985765 24.98490691 3.10286073 0 3 C0 2.01 0 1.02 0 0 Z " fill="#9D5304" transform="translate(519,64)"/>
<path d="M0 0 C0.28875 0.61875 0.5775 1.2375 0.875 1.875 C1.93720042 4.13325765 1.93720042 4.13325765 4 6 C3.9765625 8.1640625 3.9765625 8.1640625 3.625 10.625 C3.45871094 11.85089844 3.45871094 11.85089844 3.2890625 13.1015625 C3.14597656 14.04128906 3.14597656 14.04128906 3 15 C3.66 15.33 4.32 15.66 5 16 C5.78375 15.01 6.5675 14.02 7.375 13 C8.674375 11.515 8.674375 11.515 10 10 C10.66 10 11.32 10 12 10 C11.34 8.02 10.68 6.04 10 4 C10.99 3.67 11.98 3.34 13 3 C13.33 2.34 13.66 1.68 14 1 C15.98 1.66 17.96 2.32 20 3 C19.896875 4.0725 19.79375 5.145 19.6875 6.25 C19.59927598 10.14210148 19.59927598 10.14210148 22.5 12.4375 C23.325 12.953125 24.15 13.46875 25 14 C24.505 10.04 24.505 10.04 24 6 C25.32 5.01 26.64 4.02 28 3 C27.9071875 4.3921875 27.9071875 4.3921875 27.8125 5.8125 C27.69105736 8.98395103 27.69105736 8.98395103 29.5 10.875 C29.995 11.24625 30.49 11.6175 31 12 C31.33 10.68 31.66 9.36 32 8 C32.16922842 12.39993884 32.04657256 15.14762812 30 19 C29.64456573 21.33006911 29.3086247 23.66327016 29 26 C28 27 28 27 24.9375 27.0625 C23.968125 27.041875 22.99875 27.02125 22 27 C22 28.65 22 30.3 22 32 C26.54744972 33.51581657 31.18000171 33.44588967 35.9453125 33.71875 C39 34 39 34 40 35 C40.08748207 36.92667507 40.10697334 38.85651861 40.09765625 40.78515625 C40.09443359 41.95498047 40.09121094 43.12480469 40.08789062 44.33007812 C40.07532227 46.17762695 40.07532227 46.17762695 40.0625 48.0625 C40.05798828 49.29806641 40.05347656 50.53363281 40.04882812 51.80664062 C40.03699618 54.87111413 40.01906008 57.93556293 40 61 C34.72 61 29.44 61 24 61 C24.01160156 62.72089844 24.02320313 64.44179688 24.03515625 66.21484375 C24.04453234 68.45572809 24.05363273 70.69661359 24.0625 72.9375 C24.07087891 74.07380859 24.07925781 75.21011719 24.08789062 76.38085938 C24.09111328 77.46044922 24.09433594 78.54003906 24.09765625 79.65234375 C24.10289307 80.65257568 24.10812988 81.65280762 24.11352539 82.68334961 C24 85 24 85 23 86 C19.5625 86.1875 19.5625 86.1875 16 86 C15.34 85.34 14.68 84.68 14 84 C9.71 84 5.42 84 1 84 C0.67 74.43 0.34 64.86 0 55 C-0.66 55.66 -1.32 56.32 -2 57 C-1.67958603 59.60280568 -1.67958603 59.60280568 -1 62 C-1.66 62 -2.32 62 -3 62 C-3.66 61.34 -4.32 60.68 -5 60 C-5.66 60 -6.32 60 -7 60 C-6.67 61.32 -6.34 62.64 -6 64 C-6.99 64 -7.98 64 -9 64 C-9.79953138 60.71303767 -10.09658936 59.28976808 -9 56 C-8.9175 55.030625 -8.835 54.06125 -8.75 53.0625 C-8.02688008 47.37559078 -5.30919182 42.18929085 -3 37 C-1.68 37 -0.36 37 1 37 C1 36.01 1 35.02 1 34 C2.65 33.34 4.3 32.68 6 32 C6 30.35 6 28.7 6 27 C5.23171875 26.94199219 4.4634375 26.88398438 3.671875 26.82421875 C1 26 1 26 -0.546875 23.70703125 C-4.59773248 13.96129947 -4.59773248 13.96129947 -5 9 C-4.34 8.67 -3.68 8.34 -3 8 C-2.67 9.32 -2.34 10.64 -2 12 C-0.74127744 10.97034405 -0.74127744 10.97034405 -0.9375 8.75 C-0.958125 7.8425 -0.97875 6.935 -1 6 C-1.03786901 4.33376361 -1.04627845 2.66602403 -1 1 C-0.67 0.67 -0.34 0.34 0 0 Z " fill="#637D82" transform="translate(501,481)"/>
<path d="M0 0 C1.65 0 3.3 0 5 0 C5.3403125 1.60875 5.3403125 1.60875 5.6875 3.25 C7.16658293 7.47595122 8.5582019 8.352463 12 11 C12.8125 13.75 12.8125 13.75 13 16 C15.37305578 16.41780879 15.37305578 16.41780879 18 16 C19.05771739 14.36935236 20.05273046 12.69719127 21 11 C22.64142963 9.9590934 24.30712215 8.95495674 26 8 C27.9451 5.08235 28.45276317 3.37462715 29 0 C29.33 0 29.66 0 30 0 C30 7.59 30 15.18 30 23 C29.01 23.33 28.02 23.66 27 24 C27.00523682 24.72179443 27.01047363 25.44358887 27.01586914 26.18725586 C27.03657358 29.43732849 27.04963918 32.68738728 27.0625 35.9375 C27.07087891 37.07380859 27.07925781 38.21011719 27.08789062 39.38085938 C27.09111328 40.46044922 27.09433594 41.54003906 27.09765625 42.65234375 C27.10289307 43.65257568 27.10812988 44.65280762 27.11352539 45.68334961 C27 48 27 48 26 49 C22.5625 49.1875 22.5625 49.1875 19 49 C18.34 48.34 17.68 47.68 17 47 C12.71 47 8.42 47 4 47 C3.67 37.43 3.34 27.86 3 18 C2.34 18.66 1.68 19.32 1 20 C1.32041397 22.60280568 1.32041397 22.60280568 2 25 C1.34 25 0.68 25 0 25 C-0.66 24.34 -1.32 23.68 -2 23 C-2.66 23 -3.32 23 -4 23 C-3.67 24.32 -3.34 25.64 -3 27 C-3.99 27 -4.98 27 -6 27 C-6.79953138 23.71303767 -7.09658936 22.28976808 -6 19 C-5.9175 18.030625 -5.835 17.06125 -5.75 16.0625 C-5.02688008 10.37559078 -2.30919182 5.18929085 0 0 Z " fill="#3F5567" transform="translate(498,518)"/>
<path d="M0 0 C0.99 0 1.98 0 3 0 C3.00238835 1.08111116 3.00477671 2.16222233 3.00723743 3.27609444 C3.06652956 29.81334125 3.14270755 56.35050087 3.23571491 82.88765144 C3.28032122 95.72180475 3.31981236 108.55593246 3.34643555 121.39013672 C3.36970529 132.60105618 3.40341273 143.81189217 3.44870156 155.02274501 C3.47225185 160.93641045 3.49122611 166.84999527 3.49761391 172.76370621 C3.52641617 196.24121184 3.83947581 219.63871517 5.34448242 243.07373047 C5.40253575 244.00575924 5.46058908 244.93778801 5.5204016 245.89806008 C6.32003756 258.40170893 7.82130112 270.66265261 10 283 C10.21636203 284.22792707 10.43272406 285.45585415 10.65564251 286.72099113 C11.09112777 289.14997052 11.53701487 291.57613669 12 294 C10.68 294 9.36 294 8 294 C5.48588096 282.80770355 3.56916427 271.65633607 2.3125 260.25 C2.19350342 259.17580811 2.07450684 258.10161621 1.9519043 256.99487305 C0.23547148 240.62626676 -0.1423466 224.42095514 -0.11352539 207.97851562 C-0.11324276 205.70032248 -0.11340274 203.42212925 -0.1139679 201.14393616 C-0.11425289 195.00664151 -0.10840451 188.86936671 -0.10139394 182.73207664 C-0.09511062 176.30059283 -0.09455268 169.86910848 -0.09336853 163.43762207 C-0.09062111 152.65811787 -0.08438984 141.87862174 -0.07543945 131.09912109 C-0.066237 120.00439489 -0.05917008 108.90967066 -0.05493164 97.81494141 C-0.05466892 97.129149 -0.05440619 96.4433566 -0.05413551 95.73678261 C-0.05283031 92.29579231 -0.05156664 88.854802 -0.05032361 85.41381168 C-0.03998496 56.94253626 -0.02232134 28.47126841 0 0 Z " fill="#9A5104" transform="translate(63,520)"/>
<path d="M0 0 C0.66 0 1.32 0 2 0 C1.85900879 0.7621582 1.71801758 1.52431641 1.57275391 2.30957031 C-1.59455524 19.67399902 -3.88516938 36.78941367 -4.80008793 54.44429016 C-4.93001925 56.75529662 -5.07787863 59.0653894 -5.24662685 61.37388611 C-6.0753796 72.92257818 -6.17249139 84.43694008 -6.20532227 96.01171875 C-6.21492297 98.1815407 -6.22493426 100.35136087 -6.23532104 102.5211792 C-6.26213893 108.36300908 -6.28327225 114.20484684 -6.30332303 120.04670334 C-6.32532678 126.16990309 -6.35264446 132.29307917 -6.37937927 138.41625977 C-6.42911302 149.98965203 -6.47412278 161.56305756 -6.51740164 173.13647556 C-6.56694007 186.32161747 -6.62179614 199.50673561 -6.67708123 212.69185448 C-6.79060437 239.79454744 -6.89750696 266.89726324 -7 294 C-7.99 294 -8.98 294 -10 294 C-10.04581736 265.03156166 -10.08111777 236.06312691 -10.10213066 207.09465946 C-10.10463149 203.65954179 -10.10722019 200.2244242 -10.10986328 196.78930664 C-10.1103879 196.10555701 -10.11091252 195.42180738 -10.11145304 194.71733806 C-10.12010961 183.70690617 -10.1358528 172.69649558 -10.15430559 161.68607625 C-10.17313788 150.35305185 -10.18399529 139.02004305 -10.18817699 127.687002 C-10.19076482 121.3363034 -10.19676683 114.9856528 -10.21146011 108.63496971 C-10.32671963 56.80451523 -10.32671963 56.80451523 -8 36 C-7.91300779 35.21814079 -7.82601559 34.43628159 -7.73638725 33.63072968 C-7.26543738 29.50856428 -6.70400443 25.41142991 -6.0625 21.3125 C-5.90587891 20.21357422 -5.74925781 19.11464844 -5.58789062 17.98242188 C-3.38148825 3.38148825 -3.38148825 3.38148825 0 0 Z " fill="#995104" transform="translate(73,210)"/>
<path d="M0 0 C0.99 0.495 0.99 0.495 2 1 C-5.53659032 38.72063455 -32.41698999 72.60324946 -62 96 C-62.94101562 96.78117188 -63.88203125 97.56234375 -64.8515625 98.3671875 C-82.1064165 112.32266373 -109.97897375 130 -133 130 C-132.82470703 128.12109375 -132.82470703 128.12109375 -132 126 C-129.77294922 124.91015625 -129.77294922 124.91015625 -126.8046875 124.0625 C-125.70729248 123.7312915 -124.60989746 123.40008301 -123.47924805 123.05883789 C-122.28984619 122.70942139 -121.10044434 122.36000488 -119.875 122 C-100.98499278 116.07423919 -83.45468033 107.46086642 -68 95 C-67.44086914 94.55221191 -66.88173828 94.10442383 -66.30566406 93.64306641 C-51.9217159 81.99911062 -38.86241133 69.00067204 -28 54 C-27.57912109 53.42878418 -27.15824219 52.85756836 -26.72460938 52.26904297 C-16.5121693 38.27988255 -9.07794057 22.53611161 -3.79980469 6.06494141 C-3.24768026 4.36039338 -2.63005421 2.67730649 -2 1 C-1.34 0.67 -0.68 0.34 0 0 Z " fill="#7E7E81" transform="translate(946,821)"/>
<path d="M0 0 C0.28875 0.61875 0.5775 1.2375 0.875 1.875 C1.93720042 4.13325765 1.93720042 4.13325765 4 6 C3.9765625 8.1640625 3.9765625 8.1640625 3.625 10.625 C3.45871094 11.85089844 3.45871094 11.85089844 3.2890625 13.1015625 C3.14597656 14.04128906 3.14597656 14.04128906 3 15 C3.66 15.33 4.32 15.66 5 16 C5.78375 15.01 6.5675 14.02 7.375 13 C8.24125 12.01 9.1075 11.02 10 10 C10.66 10 11.32 10 12 10 C11.34 8.02 10.68 6.04 10 4 C10.99 3.67 11.98 3.34 13 3 C13.33 2.34 13.66 1.68 14 1 C15.98 1.66 17.96 2.32 20 3 C19.896875 4.0725 19.79375 5.145 19.6875 6.25 C19.59927598 10.14210148 19.59927598 10.14210148 22.5 12.4375 C23.7375 13.2109375 23.7375 13.2109375 25 14 C24.67 11.36 24.34 8.72 24 6 C25.32 5.01 26.64 4.02 28 3 C27.9071875 4.3921875 27.9071875 4.3921875 27.8125 5.8125 C27.69105736 8.98395103 27.69105736 8.98395103 29.5 10.875 C29.995 11.24625 30.49 11.6175 31 12 C31.33 10.68 31.66 9.36 32 8 C32.16922842 12.39993884 32.04657256 15.14762812 30 19 C29.64456573 21.33006911 29.3086247 23.66327016 29 26 C28 27 28 27 25.49975586 27.11352539 C24.41573486 27.10828857 23.33171387 27.10305176 22.21484375 27.09765625 C21.04501953 27.09443359 19.87519531 27.09121094 18.66992188 27.08789062 C17.43822266 27.07951172 16.20652344 27.07113281 14.9375 27.0625 C13.08415039 27.05573242 13.08415039 27.05573242 11.19335938 27.04882812 C8.12885883 27.03699608 5.06445279 27.02051173 2 27 C-4.29464286 14.94642857 -4.29464286 14.94642857 -5 9 C-4.34 8.67 -3.68 8.34 -3 8 C-2.67 9.32 -2.34 10.64 -2 12 C-0.74127744 10.97034405 -0.74127744 10.97034405 -0.9375 8.75 C-0.958125 7.8425 -0.97875 6.935 -1 6 C-1.03786901 4.33376361 -1.04627845 2.66602403 -1 1 C-0.67 0.67 -0.34 0.34 0 0 Z " fill="#838B8C" transform="translate(501,481)"/>
<path d="M0 0 C0 6.6 0 13.2 0 20 C-1.65 19.67 -3.3 19.34 -5 19 C-4.34 19.61875 -3.68 20.2375 -3 20.875 C-1 23 -1 23 -1 25 C-3.875 25.125 -3.875 25.125 -7 25 C-7.66 24.34 -8.32 23.68 -9 23 C-13.01194366 22.72216457 -16.97447362 22.9143505 -21 23 C-21 15.74 -21 8.48 -21 1 C-13.8912086 0.34631803 -7.17512294 0 0 0 Z " fill="#3A5F31" transform="translate(524,542)"/>
<path d="M0 0 C3.96 0 7.92 0 12 0 C13 1 13 1 13.11352539 3.50024414 C13.10828857 4.58426514 13.10305176 5.66828613 13.09765625 6.78515625 C13.09443359 7.95498047 13.09121094 9.12480469 13.08789062 10.33007812 C13.07951172 11.56177734 13.07113281 12.79347656 13.0625 14.0625 C13.05798828 15.29806641 13.05347656 16.53363281 13.04882812 17.80664062 C13.03699618 20.87111413 13.01906008 23.93556293 13 27 C8.38 27 3.76 27 -1 27 C-0.67 18.09 -0.34 9.18 0 0 Z " fill="#977F1F" transform="translate(528,515)"/>
<path d="M0 0 C1.98 0.66 3.96 1.32 6 2 C5.8453125 3.546875 5.8453125 3.546875 5.6875 5.125 C6.09557458 10.18512484 7.65918357 11.32510193 11 15 C11 15.99 11 16.98 11 18 C4.4 18 -2.2 18 -9 18 C-8.0051005 13.02550252 -7.69280037 12.02138212 -4 9 C-3.34 9 -2.68 9 -2 9 C-2.66 7.02 -3.32 5.04 -4 3 C-3.01 2.67 -2.02 2.34 -1 2 C-0.67 1.34 -0.34 0.68 0 0 Z " fill="#6290C4" transform="translate(515,482)"/>
<path d="M0 0 C2.875 0.9375 2.875 0.9375 4.875 3.9375 C5.53570011 8.53935308 5.68582976 12.59651232 3.25 16.625 C0.875 17.9375 0.875 17.9375 -2.25 17.9375 C-5.125 16.9375 -5.125 16.9375 -6.28125 15.15625 C-7.69881767 11.42857205 -7.69970033 7.85982976 -7.125 3.9375 C-4.97369786 0.46231962 -4.09807401 -0.08196148 0 0 Z " fill="#F0F0F0" transform="translate(592.125,431.0625)"/>
<path d="M0 0 C1.32 0 2.64 0 4 0 C4.05451714 2.04136395 4.09302485 4.08315856 4.125 6.125 C4.14820313 7.26195312 4.17140625 8.39890625 4.1953125 9.5703125 C3.99626167 13.06564501 3.20291581 15.73223658 2 19 C2 19.66 2 20.32 2 21 C2 22.32 2 23.64 2 25 C1.34 25 0.68 25 0 25 C-0.66 24.34 -1.32 23.68 -2 23 C-2.66 23 -3.32 23 -4 23 C-3.67 24.32 -3.34 25.64 -3 27 C-3.99 27 -4.98 27 -6 27 C-6.79953138 23.71303767 -7.09658936 22.28976808 -6 19 C-5.9175 18.030625 -5.835 17.06125 -5.75 16.0625 C-5.02688008 10.37559078 -2.30919182 5.18929085 0 0 Z " fill="#816F24" transform="translate(498,518)"/>
<path d="M0 0 C0.99 0 1.98 0 3 0 C4.2375 -0.0928125 4.2375 -0.0928125 5.5 -0.1875 C8 0 8 0 9.8125 1.0625 C11.67584949 4.10270179 11.36649683 6.51828011 11 10 C9.8125 12.4375 9.8125 12.4375 8 14 C5.3125 14.25 5.3125 14.25 3 14 C3 13.34 3 12.68 3 12 C2.34 12 1.68 12 1 12 C1 14.31 1 16.62 1 19 C0.67 19 0.34 19 0 19 C0 12.73 0 6.46 0 0 Z " fill="#848484" transform="translate(478,435)"/>
<path d="M0 0 C4.62 0 9.24 0 14 0 C14 2.64 14 5.28 14 8 C9.8782921 9.99840383 6.5597248 10.33775739 2 10 C1.01 9.34 0.02 8.68 -1 8 C-0.67 5.36 -0.34 2.72 0 0 Z " fill="#8F7A21" transform="translate(509,508)"/>
<path d="M0 0 C9.9 0 19.8 0 30 0 C30 1.32 30 2.64 30 4 C20.1 4 10.2 4 0 4 C0 2.68 0 1.36 0 0 Z " fill="#000000" transform="translate(422,415)"/>
<path d="M0 0 C9.9 0 19.8 0 30 0 C30 1.32 30 2.64 30 4 C20.1 4 10.2 4 0 4 C0 2.68 0 1.36 0 0 Z " fill="#000000" transform="translate(422,405)"/>
<path d="M0 0 C6.75 0.75 6.75 0.75 9 3 C9.1953125 5.6015625 9.1953125 5.6015625 9.125 8.625 C9.10695313 9.62789063 9.08890625 10.63078125 9.0703125 11.6640625 C9.03550781 12.82035156 9.03550781 12.82035156 9 14 C8.01 13.67 7.02 13.34 6 13 C4.989375 13.185625 3.97875 13.37125 2.9375 13.5625 C1.968125 13.706875 0.99875 13.85125 0 14 C-2 12 -2 12 -2.125 9.375 C-2.08375 8.59125 -2.0425 7.8075 -2 7 C1.13498292 5.14223235 3.37471432 4.79859524 7 5 C6.67 4.34 6.34 3.68 6 3 C3.67843403 2.59270772 1.3431213 2.25561323 -1 2 C-0.67 1.34 -0.34 0.68 0 0 Z " fill="#171717" transform="translate(519,435)"/>
<path d="M0 0 C0.66 0 1.32 0 2 0 C2.33 1.98 2.66 3.96 3 6 C2.34 6 1.68 6 1 6 C2.91315119 8.57619276 3.9016314 8.98395232 7.13671875 9.51171875 C8.89435547 9.59873047 8.89435547 9.59873047 10.6875 9.6875 C11.86699219 9.75324219 13.04648437 9.81898438 14.26171875 9.88671875 C15.16535156 9.92410156 16.06898438 9.96148438 17 10 C16.31911019 12.91985181 15.41898766 15.35122304 14 18 C12.68 17.67 11.36 17.34 10 17 C10.66 16.67 11.32 16.34 12 16 C12 15.34 12 14.68 12 14 C11.31292969 14.09539063 10.62585938 14.19078125 9.91796875 14.2890625 C9.01691406 14.39992188 8.11585938 14.51078125 7.1875 14.625 C6.29417969 14.74101563 5.40085937 14.85703125 4.48046875 14.9765625 C2 15 2 15 -1 13 C-0.67 8.71 -0.34 4.42 0 0 Z " fill="#414C58" transform="translate(507,508)"/>
<path d="M0 0 C0.28875 0.61875 0.5775 1.2375 0.875 1.875 C1.93720042 4.13325765 1.93720042 4.13325765 4 6 C3.89400837 8.2876526 3.48590253 10.45606048 3.09375 12.7109375 C2.98427359 15.38398647 3.63563585 16.73639584 5 19 C4.01 19.66 3.02 20.32 2 21 C1.34 21.99 0.68 22.98 0 24 C-2.37113483 19.03715966 -4.43174347 14.54050113 -5 9 C-4.34 8.67 -3.68 8.34 -3 8 C-2.67 9.32 -2.34 10.64 -2 12 C-0.74127744 10.97034405 -0.74127744 10.97034405 -0.9375 8.75 C-0.958125 7.8425 -0.97875 6.935 -1 6 C-1.03786901 4.33376361 -1.04627845 2.66602403 -1 1 C-0.67 0.67 -0.34 0.34 0 0 Z " fill="#F49366" transform="translate(501,481)"/>
<path d="M0 0 C2.4375 1.1875 2.4375 1.1875 5 3 C5.8125 5.6875 5.8125 5.6875 6 8 C8.37305578 8.41780879 8.37305578 8.41780879 11 8 C12.8624438 5.59141286 12.8624438 5.59141286 14 3 C15.32 3.33 16.64 3.66 18 4 C17.67 6.31 17.34 8.62 17 11 C13.32937509 12.57312496 11.55697326 13.14440048 7.625 12.125 C6.75875 11.75375 5.8925 11.3825 5 11 C5 10.34 5 9.68 5 9 C4.01 9 3.02 9 2 9 C1.34 6.03 0.68 3.06 0 0 Z " fill="#712E19" transform="translate(505,526)"/>
<path d="M0 0 C0.99 0.495 0.99 0.495 2 1 C4.00451121 0.69496569 6.00448218 0.35919321 8 0 C11.53471921 0 14.56187949 0.23597322 18 1 C19.32229189 3.64458379 19.09677194 5.67761301 19.0625 8.625 C19.05347656 9.62789063 19.04445313 10.63078125 19.03515625 11.6640625 C19.02355469 12.43492187 19.01195312 13.20578125 19 14 C18.34 14 17.68 14 17 14 C16.67 10.37 16.34 6.74 16 3 C14.35 3.33 12.7 3.66 11 4 C10.67 7.3 10.34 10.6 10 14 C9.34 14 8.68 14 8 14 C7.67 10.37 7.34 6.74 7 3 C5.35 3.33 3.7 3.66 2 4 C1.67 7.3 1.34 10.6 1 14 C0.67 14 0.34 14 0 14 C0 9.38 0 4.76 0 0 Z " fill="#1C1C1C" transform="translate(454,435)"/>
<path d="M0 0 C3.24305125 0.37709898 4.92379455 1.60163472 7.6875 3.3125 C10.00441454 4.03416191 12.33598923 4.71309529 14.6875 5.3125 C14.6875 5.9725 14.6875 6.6325 14.6875 7.3125 C8.0875 7.3125 1.4875 7.3125 -5.3125 7.3125 C-3.95694444 0.53472222 -3.95694444 0.53472222 0 0 Z " fill="#3E4D97" transform="translate(511.3125,492.6875)"/>
<path d="M0 0 C7.07721931 -0.12109311 13.97195301 0.14626761 21 1 C21 2.65 21 4.3 21 6 C16.38 6 11.76 6 7 6 C7 4.68 7 3.36 7 2 C4.69 1.67 2.38 1.34 0 1 C0 0.67 0 0.34 0 0 Z " fill="#717E87" transform="translate(508,502)"/>
<path d="M0 0 C2.875 0.9375 2.875 0.9375 4.875 3.9375 C5.53570011 8.53935308 5.68582976 12.59651232 3.25 16.625 C0.875 17.9375 0.875 17.9375 -2.25 17.9375 C-5.125 16.9375 -5.125 16.9375 -6.28125 15.15625 C-7.69881767 11.42857205 -7.69970033 7.85982976 -7.125 3.9375 C-4.97369786 0.46231962 -4.09807401 -0.08196148 0 0 Z M-3.125 1.9375 C-5.34552862 3.74349761 -5.34552862 3.74349761 -5.390625 6.25 C-5.38546875 7.136875 -5.3803125 8.02375 -5.375 8.9375 C-5.38015625 9.824375 -5.3853125 10.71125 -5.390625 11.625 C-5.34552862 14.13150239 -5.34552862 14.13150239 -3.125 15.9375 C-0.54959787 15.77242354 -0.54959787 15.77242354 1.875 14.9375 C3.05173198 12.58403604 3.04123866 11.0568967 3.0625 8.4375 C3.08376953 7.24640625 3.08376953 7.24640625 3.10546875 6.03125 C3.07166303 3.71716683 3.07166303 3.71716683 0.875 1.9375 C-0.445 1.9375 -1.765 1.9375 -3.125 1.9375 Z " fill="#161616" transform="translate(592.125,431.0625)"/>
<path d="M0 0 C0.51484621 2.05938485 1.02107885 4.10539426 1.4375 6.1875 C1.623125 6.785625 1.80875 7.38375 2 8 C2.66 8.33 3.32 8.66 4 9 C4.33 7.68 4.66 6.36 5 5 C5.31563182 10.26053037 4.66590937 13.44573816 2 18 C0.0625 17.3125 0.0625 17.3125 -2 16 C-2.8125 13.4375 -2.8125 13.4375 -3 11 C-2.67 10.67 -2.34 10.34 -2 10 C-2.20625 8.88625 -2.4125 7.7725 -2.625 6.625 C-3 3 -3 3 -1.5625 1.0625 C-1.046875 0.711875 -0.53125 0.36125 0 0 Z " fill="#F5A383" transform="translate(528,484)"/>
<path d="M0 0 C0.66 1.32 1.32 2.64 2 4 C1.37351562 3.90460938 0.74703125 3.80921875 0.1015625 3.7109375 C-0.71570313 3.60007812 -1.53296875 3.48921875 -2.375 3.375 C-3.59316406 3.20097656 -3.59316406 3.20097656 -4.8359375 3.0234375 C-5.55007813 3.01570313 -6.26421875 3.00796875 -7 3 C-9.15705515 4.7564331 -9.15705515 4.7564331 -9.265625 6.875 C-9.26046875 7.57625 -9.2553125 8.2775 -9.25 9 C-9.25515625 9.70125 -9.2603125 10.4025 -9.265625 11.125 C-9.15705515 13.2435669 -9.15705515 13.2435669 -7 15 C-3.60402937 15.21676408 -1.24221555 15.08073852 2 14 C1.34 15.32 0.68 16.64 0 18 C-4.25018379 18.41668469 -6.35342568 18.44022082 -9.9375 16 C-12.23092162 12.66411401 -12.75815509 10.90015906 -12.48046875 6.9375 C-10.83524759 0.30311221 -6.04044891 -0.59220087 0 0 Z " fill="#131313" transform="translate(512,431)"/>
<path d="M0 0 C0.515625 0.185625 1.03125 0.37125 1.5625 0.5625 C4.84287179 1.15128468 7.72170962 0.48567265 11 0 C11.66 0.33 12.32 0.66 13 1 C13 4.90432869 12.31626692 7.38026598 11 11 C9.68 9.68 8.36 8.36 7 7 C6.67 7.66 6.34 8.32 6 9 C6 8.34 6 7.68 6 7 C5.34 6.67 4.68 6.34 4 6 C1.875 4.0625 1.875 4.0625 0 2 C0 1.34 0 0.68 0 0 Z " fill="#9A8459" transform="translate(506,521)"/>
<path d="M0 0 C3.375 -0.125 3.375 -0.125 7 0 C7.66 0.66 8.32 1.32 9 2 C8.6730244 4.61580479 8.17960932 6.64078137 7 9 C7.66 9 8.32 9 9 9 C9.125 12.375 9.125 12.375 9 16 C7 18 7 18 5.0546875 18.1953125 C3.03645833 18.13020833 1.01822917 18.06510417 -1 18 C-1.33 17.34 -1.66 16.68 -2 16 C0.64 15.67 3.28 15.34 6 15 C6 13.35 6 11.7 6 10 C4.35 9.67 2.7 9.34 1 9 C1 8.34 1 7.68 1 7 C2.65 6.67 4.3 6.34 6 6 C6 5.01 6 4.02 6 3 C3.69 2.67 1.38 2.34 -1 2 C-0.67 1.34 -0.34 0.68 0 0 Z " fill="#323232" transform="translate(563,431)"/>
<path d="M0 0 C3 0.25 3 0.25 5 2.25 C2.36 2.58 -0.28 2.91 -3 3.25 C-3 4.24 -3 5.23 -3 6.25 C1.455 8.23 1.455 8.23 6 10.25 C6.3125 12.5625 6.3125 12.5625 6 15.25 C3.9375 17.125 3.9375 17.125 1 18.25 C-2.8125 17.9375 -2.8125 17.9375 -6 17.25 C-6 16.59 -6 15.93 -6 15.25 C-3.03 15.25 -0.06 15.25 3 15.25 C3 13.93 3 12.61 3 11.25 C-1.455 9.27 -1.455 9.27 -6 7.25 C-4.92 0.41 -4.92 0.41 0 0 Z " fill="#121212" transform="translate(436,430.75)"/>
<path d="M0 0 C3.96 0 7.92 0 12 0 C12.33 0.99 12.66 1.98 13 3 C9.04 3 5.08 3 1 3 C1 10.92 1 18.84 1 27 C0.34 26.67 -0.32 26.34 -1 26 C-0.67 17.42 -0.34 8.84 0 0 Z " fill="#C8AD3D" transform="translate(528,515)"/>
<path d="M0 0 C0.66 0.33 1.32 0.66 2 1 C-5.92 8.92 -13.84 16.84 -22 25 C-22.66 24.67 -23.32 24.34 -24 24 C-16.39173545 15.51489645 -8.5364267 7.55261866 0 0 Z " fill="#B65D03" transform="translate(135,109)"/>
<path d="M0 0 C3.77076889 -0.05799124 7.54142334 -0.09359306 11.3125 -0.125 C12.38435547 -0.14175781 13.45621094 -0.15851563 14.56054688 -0.17578125 C15.58857422 -0.18222656 16.61660156 -0.18867188 17.67578125 -0.1953125 C18.62364502 -0.20578613 19.57150879 -0.21625977 20.5480957 -0.22705078 C23 0 23 0 26 2 C26.1875 4.625 26.1875 4.625 26 7 C25.67 5.68 25.34 4.36 25 3 C24.44054687 3.01160156 23.88109375 3.02320313 23.3046875 3.03515625 C18.00193686 3.09483351 12.73193391 2.93388714 7.4375 2.625 C6.23996094 2.55539062 5.04242188 2.48578125 3.80859375 2.4140625 C2.88175781 2.27742188 1.95492188 2.14078125 1 2 C0.67 1.34 0.34 0.68 0 0 Z " fill="#ADB7C3" transform="translate(504,500)"/>
<path d="M0 0 C1.32 0 2.64 0 4 0 C3.67 3.63 3.34 7.26 3 11 C0.69 11.33 -1.62 11.66 -4 12 C-3.33501617 7.61110675 -1.81242323 4.0188515 0 0 Z " fill="#A38B2C" transform="translate(498,518)"/>
<path d="M0 0 C1.125 3.75 1.125 3.75 0 6 C2.31 6 4.62 6 7 6 C7 8.33333333 7 10.66666667 7 13 C6.34 13 5.68 13 5 13 C4.34 12.34 3.68 11.68 3 11 C2.34 11 1.68 11 1 11 C1.33 12.32 1.66 13.64 2 15 C1.01 15 0.02 15 -1 15 C-1.79953138 11.71303767 -2.09658936 10.28976808 -1 7 C-0.64456573 4.66993089 -0.3086247 2.33672984 0 0 Z " fill="#A9913F" transform="translate(493,530)"/>
<path d="M0 0 C-0.04640625 0.67546875 -0.0928125 1.3509375 -0.140625 2.046875 C-0.51867616 7.73404931 -0.51867616 7.73404931 2 12.625 C2.66 13.07875 3.32 13.5325 4 14 C3.01 14.33 2.02 14.66 1 15 C-2.49413605 12.13301658 -4.28836874 10.15849852 -4.8125 5.6875 C-4.874375 4.470625 -4.93625 3.25375 -5 2 C-2 0 -2 0 0 0 Z " fill="#537D8F" transform="translate(507,513)"/>
<path d="M0 0 C0 0.33 0 0.66 0 1 C-2.31 1.66 -4.62 2.32 -7 3 C-7 5.64 -7 8.28 -7 11 C-4.69 11 -2.38 11 0 11 C-0.33 11.66 -0.66 12.32 -1 13 C-6.33333333 13.35555556 -6.33333333 13.35555556 -8.875 12 C-10.68755546 8.77767918 -10.53166222 5.60182435 -10 2 C-7.75198885 -2.36378636 -4.22539083 -0.87696791 0 0 Z " fill="#272727" transform="translate(549,436)"/>
<path d="M0 0 C1.98 0.66 3.96 1.32 6 2 C5.34 4.31 4.68 6.62 4 9 C1.125 8.8125 1.125 8.8125 -2 8 C-3.375 5.4375 -3.375 5.4375 -4 3 C-3.01 2.67 -2.02 2.34 -1 2 C-0.67 1.34 -0.34 0.68 0 0 Z " fill="#9F844D" transform="translate(515,482)"/>
<path d="M0 0 C2.475 0.99 2.475 0.99 5 2 C4.4140625 8.15234375 4.4140625 8.15234375 4 10 C3.01 10.495 3.01 10.495 2 11 C1.67 9.02 1.34 7.04 1 5 C-0.98 5 -2.96 5 -5 5 C-2 3 -2 3 0 3 C0 2.01 0 1.02 0 0 Z " fill="#5B869D" transform="translate(523,513)"/>
<path d="M0 0 C2.25 -0.3125 2.25 -0.3125 5 0 C7.3125 2.5 7.3125 2.5 9 5 C5.7 5 2.4 5 -1 5 C-0.67 3.35 -0.34 1.7 0 0 Z " fill="#304379" transform="translate(507,495)"/>
<path d="M0 0 C0.93619813 3.15506142 1.1057123 5.96586502 1.0625 9.25 C1.05347656 10.14203125 1.04445313 11.0340625 1.03515625 11.953125 C1.02355469 12.62859375 1.01195312 13.3040625 1 14 C-1 13 -1 13 -2.1875 10.25 C-3.02067619 6.91729524 -3.07414576 5.22243727 -2 2 C-1.34 1.34 -0.68 0.68 0 0 Z " fill="#FB996D" transform="translate(528,484)"/>
<path d="M0 0 C0.33 0 0.66 0 1 0 C1 3.96 1 7.92 1 12 C0.01 12.495 0.01 12.495 -1 13 C-2.65 11.02 -4.3 9.04 -6 7 C-4.0625 6.4375 -4.0625 6.4375 -2 6 C-1.67 6.33 -1.34 6.66 -1 7 C-0.67 4.69 -0.34 2.38 0 0 Z " fill="#72976A" transform="translate(524,554)"/>
<path d="M0 0 C-0.33 0.66 -0.66 1.32 -1 2 C-0.01 2.66 0.98 3.32 2 4 C1.67 5.32 1.34 6.64 1 8 C-0.32 6.68 -1.64 5.36 -3 4 C-3.33 4.66 -3.66 5.32 -4 6 C-4 5.34 -4 4.68 -4 4 C-4.66 3.67 -5.32 3.34 -6 3 C-6 2.01 -6 1.02 -6 0 C-3 -1 -3 -1 0 0 Z " fill="#876640" transform="translate(516,524)"/>
<path d="M0 0 C1.35158203 0.15275391 1.35158203 0.15275391 2.73046875 0.30859375 C3.41753906 0.39238281 4.10460937 0.47617187 4.8125 0.5625 C4.8125 1.2225 4.8125 1.8825 4.8125 2.5625 C1.25896071 3.7470131 -1.45763478 3.82891894 -5.1875 3.5625 C-7.125 2.0625 -7.125 2.0625 -8.1875 0.5625 C-4.98734144 -0.50421952 -3.30205706 -0.38595472 0 0 Z " fill="#988632" transform="translate(516.1875,514.4375)"/>
<path d="M0 0 C2.31 0 4.62 0 7 0 C6.125 3.875 6.125 3.875 5 5 C3.33382885 5.04063832 1.66611905 5.042721 0 5 C0 3.35 0 1.7 0 0 Z " fill="#EDEDED" transform="translate(519,442)"/>
<path d="M0 0 C0.66 0 1.32 0 2 0 C2 2.64 2 5.28 2 8 C-1.3 7.67 -4.6 7.34 -8 7 C-6.68 6.67 -5.36 6.34 -4 6 C-4 5.34 -4 4.68 -4 4 C-2.68 4.33 -1.36 4.66 0 5 C0 3.35 0 1.7 0 0 Z " fill="#4B4920" transform="translate(521,508)"/>
<path d="M0 0 C0.66 1.32 1.32 2.64 2 4 C1.38511719 3.90460938 0.77023437 3.80921875 0.13671875 3.7109375 C-0.67152344 3.60007812 -1.47976563 3.48921875 -2.3125 3.375 C-3.11300781 3.25898438 -3.91351563 3.14296875 -4.73828125 3.0234375 C-7.28723215 2.78466593 -7.28723215 2.78466593 -10 5 C-10 4.01 -10 3.02 -10 2 C-6.3558226 -0.4294516 -4.28758728 -0.16179575 0 0 Z " fill="#333333" transform="translate(512,431)"/>
<path d="M0 0 C1.98 0 3.96 0 6 0 C6.33 1.32 6.66 2.64 7 4 C6.01 4 5.02 4 4 4 C4 4.66 4 5.32 4 6 C3.34 6 2.68 6 2 6 C1.34 4.02 0.68 2.04 0 0 Z " fill="#8C8C71" transform="translate(509,528)"/>
<path d="M0 0 C4.8 2.46153846 4.8 2.46153846 5.8125 5.1875 C5.874375 5.785625 5.93625 6.38375 6 7 C4.02 7.99 4.02 7.99 2 9 C1.34 6.03 0.68 3.06 0 0 Z " fill="#68251C" transform="translate(505,526)"/>
<path d="M0 0 C0.28875 0.61875 0.5775 1.2375 0.875 1.875 C1.93720042 4.13325765 1.93720042 4.13325765 4 6 C3.625 8.125 3.625 8.125 3 10 C2.01 9.67 1.02 9.34 0 9 C-0.87890625 2.84765625 -0.87890625 2.84765625 -1 1 C-0.67 0.67 -0.34 0.34 0 0 Z " fill="#FBB093" transform="translate(501,481)"/>
<path d="M0 0 C3.375 -0.125 3.375 -0.125 7 0 C7.66 0.66 8.32 1.32 9 2 C8.625 4.625 8.625 4.625 8 7 C7.7215625 6.0409375 7.7215625 6.0409375 7.4375 5.0625 C6.05753944 2.57873787 6.05753944 2.57873787 2.375 2.25 C1.26125 2.1675 0.1475 2.085 -1 2 C-0.67 1.34 -0.34 0.68 0 0 Z " fill="#272727" transform="translate(563,431)"/>
<path d="M0 0 C3.375 -0.1875 3.375 -0.1875 7 0 C7.66 0.99 8.32 1.98 9 3 C6.03 2.505 6.03 2.505 3 2 C3 2.66 3 3.32 3 4 C1.68 3.67 0.36 3.34 -1 3 C-0.67 2.01 -0.34 1.02 0 0 Z " fill="#909CA3" transform="translate(503,504)"/>
<path d="M0 0 C0 3 0 3 -1.125 4.75 C-3 6 -3 6 -6.1875 5.6875 C-7.115625 5.460625 -8.04375 5.23375 -9 5 C-9.33 3.68 -9.66 2.36 -10 1 C-8.515 1.99 -8.515 1.99 -7 3 C-3.12202338 3.43386092 -3.12202338 3.43386092 -1.25 1.5 C-0.8375 1.005 -0.425 0.51 0 0 Z " fill="#292929" transform="translate(596,443)"/>
<path d="M0 0 C1.65 0 3.3 0 5 0 C5 1.65 5 3.3 5 5 C3.68 4.67 2.36 4.34 1 4 C0.67 4.66 0.34 5.32 0 6 C0 4.02 0 2.04 0 0 Z " fill="#816D1E" transform="translate(516,508)"/>
<path d="M0 0 C2 3.75 2 3.75 2 6 C4.31 6 6.62 6 9 6 C8.67 6.66 8.34 7.32 8 8 C2.58860759 8.36075949 2.58860759 8.36075949 0.0625 6.8125 C-1 5 -1 5 -0.6875 2.3125 C-0.460625 1.549375 -0.23375 0.78625 0 0 Z " fill="#363636" transform="translate(540,441)"/>
<path d="M0 0 C3.465 1.485 3.465 1.485 7 3 C7 3.66 7 4.32 7 5 C5.02 5 3.04 5 1 5 C0.67 3.35 0.34 1.7 0 0 Z " fill="#365B2E" transform="translate(516,562)"/>
<path d="M0 0 C4.38889325 0.66498383 7.9811485 2.18757677 12 4 C8.64474971 5.11841676 8.02910146 4.91538821 4.875 3.6875 C4.17117188 3.42324219 3.46734375 3.15898437 2.7421875 2.88671875 C1 2 1 2 0 0 Z " fill="#5A68BC" transform="translate(514,493)"/>
<path d="M0 0 C0.2475 0.556875 0.495 1.11375 0.75 1.6875 C2.21606015 4.39971127 4.02989471 6.63587365 6 9 C3.03 8.505 3.03 8.505 0 8 C0 5.36 0 2.72 0 0 Z " fill="#8794DF" transform="translate(519,487)"/>
<path d="M0 0 C0.99 0 1.98 0 3 0 C2.67 2.31 2.34 4.62 2 7 C1.01 7 0.02 7 -1 7 C-0.67 4.69 -0.34 2.38 0 0 Z " fill="#F9915F" transform="translate(501,490)"/>
<path d="M0 0 C0.66 1.32 1.32 2.64 2 4 C2.66 3.67 3.32 3.34 4 3 C3.34 5.31 2.68 7.62 2 10 C-0.13262124 6.80106814 -0.59021548 4.77001757 -1 1 C-0.67 0.67 -0.34 0.34 0 0 Z " fill="#FAAF91" transform="translate(497,489)"/>
<path d="M0 0 C0 0.99 0 1.98 0 3 C-1 4 -1 4 -4.5625 4.0625 C-5.696875 4.041875 -6.83125 4.02125 -8 4 C-8.33 3.34 -8.66 2.68 -9 2 C-6.03 1.34 -3.06 0.68 0 0 Z " fill="#323232" transform="translate(513,445)"/>
<path d="M0 0 C0.66 0.66 1.32 1.32 2 2 C1.625 4.625 1.625 4.625 1 7 C-0.32 7 -1.64 7 -3 7 C-1.125 1.125 -1.125 1.125 0 0 Z " fill="#AC5D04" transform="translate(88,166)"/>
<path d="M0 0 C0.33 0 0.66 0 1 0 C1 3.3 1 6.6 1 10 C0.01 10.495 0.01 10.495 -1 11 C-1.66 9.35 -2.32 7.7 -3 6 C-2.34 5.67 -1.68 5.34 -1 5 C-0.34444881 2.47266765 -0.34444881 2.47266765 0 0 Z " fill="#EAE7DE" transform="translate(501,531)"/>
<path d="M0 0 C1.32 0 2.64 0 4 0 C4 1.32 4 2.64 4 4 C2.35 4 0.7 4 -1 4 C-0.67 2.68 -0.34 1.36 0 0 Z " fill="#917B22" transform="translate(497,532)"/>
<path d="M0 0 C-0.33 1.65 -0.66 3.3 -1 5 C-2.32 5 -3.64 5 -5 5 C-5 4.01 -5 3.02 -5 2 C-2 0 -2 0 0 0 Z " fill="#6E9FBB" transform="translate(507,513)"/>
<path d="M0 0 C1.32 0.33 2.64 0.66 4 1 C4 1.99 4 2.98 4 4 C2.68 4.33 1.36 4.66 0 5 C0 3.35 0 1.7 0 0 Z " fill="#A18822" transform="translate(509,508)"/>
<path d="M0 0 C1.875 0.3125 1.875 0.3125 4 1 C4.66 1.99 5.32 2.98 6 4 C3.69 3.67 1.38 3.34 -1 3 C-0.67 2.01 -0.34 1.02 0 0 Z " fill="#263A6F" transform="translate(510,496)"/>
</svg>
